<?xml version="1.0" encoding="UTF-8" standalone="no"?>
<!-- Created with Inkscape (http://www.inkscape.org/) -->

<svg
   xmlns:dc="http://purl.org/dc/elements/1.1/"
   xmlns:cc="http://creativecommons.org/ns#"
   xmlns:rdf="http://www.w3.org/1999/02/22-rdf-syntax-ns#"
   xmlns:svg="http://www.w3.org/2000/svg"
   xmlns="http://www.w3.org/2000/svg"
   xmlns:xlink="http://www.w3.org/1999/xlink"
   version="1.2"
   width="750"
   height="750"
   id="svg3113">
  <defs
     id="defs3115">
    <linearGradient
       id="linearGradient3034">
      <stop
         id="stop3036"
         style="stop-color:#ff00ff;stop-opacity:1"
         offset="0" />
      <stop
         id="stop3038"
         style="stop-color:#ffff00;stop-opacity:1"
         offset="1" />
    </linearGradient>
    <linearGradient
       id="linearGradient3026">
      <stop
         id="stop3028"
         style="stop-color:#d45500;stop-opacity:1"
         offset="0" />
      <stop
         id="stop3030"
         style="stop-color:#00ffff;stop-opacity:1"
         offset="1" />
    </linearGradient>
    <linearGradient
       id="linearGradient3012">
      <stop
         id="stop3014"
         style="stop-color:#ff0000;stop-opacity:1"
         offset="0" />
      <stop
         id="stop3016"
         style="stop-color:#2b1100;stop-opacity:1"
         offset="1" />
    </linearGradient>
    <linearGradient
       x1="274.28571"
       y1="882.85712"
       x2="321.42856"
       y2="1100"
       id="linearGradient3018"
       xlink:href="#linearGradient3012"
       gradientUnits="userSpaceOnUse" />
    <linearGradient
       x1="400"
       y1="1090"
       x2="562.85712"
       y2="844.28571"
       id="linearGradient3032"
       xlink:href="#linearGradient3026"
       gradientUnits="userSpaceOnUse" />
    <linearGradient
       x1="581.42859"
       y1="997.14282"
       x2="730"
       y2="994.28571"
       id="linearGradient3040"
       xlink:href="#linearGradient3034"
       gradientUnits="userSpaceOnUse" />
  </defs>
  <metadata
     id="metadata3118">
    <rdf:RDF>
      <cc:Work
         rdf:about="">
        <dc:format>image/svg+xml</dc:format>
        <dc:type
           rdf:resource="http://purl.org/dc/dcmitype/StillImage" />
        <dc:title></dc:title>
      </cc:Work>
    </rdf:RDF>
  </metadata>
  <g
     transform="translate(0,-302.36218)"
     id="background">
    <image
       xlink:href="file:///C:/Users/Kmwboston/Pictures/hexel_ogre2.png"
       x="-489.85712"
       y="256.64789"
       width="705.42859"
       height="842.85712"
       id="image3121"
       style="opacity:0.48920001" />
    <flowRoot
       transform="translate(91.428572,353.79075)"
       id="japaneseogre"
       xml:space="preserve"
       style="font-size:40px;font-style:normal;font-weight:normal;line-height:125%;letter-spacing:0px;word-spacing:0px;fill:#000000;fill-opacity:1;stroke:none;font-family:Sans"><flowRegion
         id="flowRegion3200"><rect
           width="424.28571"
           height="140"
           x="242.85715"
           y="470"
           id="rect3202" /></flowRegion><flowPara
         id="flowPara3204"
         style="font-size:64px;font-style:normal;font-variant:normal;font-weight:normal;font-stretch:normal;font-family:Segoe UI;-inkscape-font-specification:Segoe UI">オーグル</flowPara></flowRoot>    <text
       x="390"
       y="608.57141"
       transform="translate(0,302.36218)"
       id="text3042"
       xml:space="preserve"
       style="font-size:40px;font-style:normal;font-weight:normal;line-height:125%;letter-spacing:0px;word-spacing:0px;fill:#000000;fill-opacity:1;stroke:none;font-family:Sans"><tspan
         x="390"
         y="608.57141"
         id="tspan3044" /></text>
    <flowRoot
       transform="translate(133.46429,342.15752)"
       id="ogre"
       xml:space="preserve"
       style="font-size:40px;font-style:normal;font-weight:normal;line-height:125%;letter-spacing:0px;word-spacing:0px;fill:#000000;fill-opacity:1;stroke:none;font-family:Sans"><flowRegion
         id="flowRegion3200-2"><rect
           width="424.28571"
           height="140"
           x="242.85715"
           y="470"
           id="rect3202-3" /></flowRegion><flowPara
         id="flowPara3204-1"
         style="font-size:64px;font-style:normal;font-variant:normal;font-weight:normal;font-stretch:normal;font-family:Segoe UI;-inkscape-font-specification:Segoe UI">OGRE</flowPara><flowPara
         id="flowPara3073"
         style="font-size:64px;font-style:normal;font-variant:normal;font-weight:normal;font-stretch:normal;font-family:Segoe UI;-inkscape-font-specification:Segoe UI" /></flowRoot>  </g>
  <g
     transform="translate(0,-750)"
     id="faces"
     style="display:inline">
    <path
       d="m 662.45228,1095.5874 c -1.50896,-3.5244 -4.49296,-5.0939 -7.4172,-5.6715 -2.49288,-2.6768 -3.51416,-6.7715 -7.00688,-7.2661 -1.25048,-2.9704 -0.0504,-5.5284 -2.28032,-8.6773 0.55024,-2.9191 0.65456,-6.3424 3.48032,-9.4764 2.1828,-2.2916 -1.76968,-5.7697 3.2876,-5.2232 2.10264,-2.3723 4.8964,-4.2655 8.86704,-3.7146 4.84776,2.373 5.10744,-4.0646 8.64352,-3.7569 3.6516,-0.3982 5.43216,-3.4762 9.816,-2.2283 2.22856,-2.4728 6.15688,-1.926 9.8524,-2.2046 3.59072,0.4796 7.29072,0.045 10.90152,0.2113 3.50416,0.4416 7.95272,-1.5134 9.8388,2.221 4.50464,-3.4567 5.29368,5.7819 7.9932,2.8203 0.86672,-3.8501 6.32032,-7.4058 3.71976,-1.3891 1.1312,2.9664 0.95256,6.2042 -1.3196,9.3702 0.6988,3.0876 1.58888,6.517 -1.08312,9.3563 3.0476,3.4399 -3.23888,6.3509 -1.91816,9.603 0.083,3.2392 0.57304,6.0937 -1.71824,9.5925 -2.41288,2.5613 -4.72464,4.6163 -8.57448,4.3914 -3.6156,0.1992 -7.31424,-0.2936 -10.90568,0.2376 -3.69392,-0.4924 -7.3348,-0.1053 -11.03104,-0.2023 -1.39176,3.7434 -6.59224,1.4794 -9.83416,1.7804 -3.60464,0.5216 -7.32568,0.03 -10.922,0.2131 -0.81056,-0.85 -1.59792,0.9759 -2.38928,0.014 z m -11.47408,-3.9002 c -1.51168,-3.4882 -6.248,-1.1421 -8.13672,-3.9919 -3.2756,-0.8962 -3.57648,-6.1425 -6.29608,-8.4671 -1.38896,-3.319 -3.4968,-6.3757 -5.31592,-9.5854 -2.9144,-5.3218 -3.54856,2.5822 -3.70184,4.3246 0,3.507 5.10584,6.3902 3.88608,9.683 -2.54568,-0.8597 -3.68032,-4.5877 -6.38552,-5.0578 2.25032,-3.192 -1.998,-6.4494 -3.47624,-9.3552 -1.84976,-3.418 -0.10168,-6.3754 -0.72248,-9.5947 -0.21768,-3.2458 -0.34968,-6.2161 1.6728,-9.6008 -2.40592,-2.9541 2.86104,-6.2798 3.5272,-9.422 2.0668,-3.0225 3.34984,-6.7525 5.81968,-9.304 5.39736,0.9571 2.33328,-7.1829 -1.02096,-2.6525 -1.72808,4.167 -7.34016,-7.0552 -2.52912,-4.7029 2.36544,4.9203 5.282,-1.9459 8.768,-0.4037 4.12304,3.0349 5.68008,-7.5396 7.44152,-2.325 -1.34944,4.3607 -5.15272,3.5543 -6.6804,7.2547 -2.0468,3.0541 -3.4404,6.7429 -5.90312,9.3768 -3.88248,-0.6718 -4.39304,5.4131 -3.99688,7.7388 -2.08056,3.2675 -1.20392,6.1754 -0.63264,9.5281 -0.90904,2.9683 -1.2176,6.232 1.17224,9.4438 2.15968,2.0778 7.89592,1.745 8.08096,-2.525 0.88784,-2.5532 0.17504,-5.1685 2.15984,-8.0766 -2.08264,-2.4234 1.8892,-7.9876 5.33368,-6.3993 2.7516,-1.5938 5.70792,-2.459 7.28352,-6.3338 -2.05496,-3.5415 1.68416,-6.4723 3.10368,-9.6779 1.26336,-3.3919 7.51144,-2.8613 8.67992,0.5304 0.75648,3.1415 3.91232,7.9384 6.87808,4.5024 2.5924,-2.0778 5.80088,-2.3372 8.10416,-5.2676 3.5688,0.5809 7.35368,0.081 10.97112,0.2475 3.6452,0.1465 7.29808,-0.331 10.96888,0.2268 3.53128,-0.3462 3.77856,6.1574 8.59088,3.7395 4.80064,-2.2052 5.44512,3.8883 8.49712,3.7098 2.81064,-3.3878 -1.46176,-6.4492 -2.69264,-9.689 -2.44784,-3.2148 -0.2676,-6.0654 -2.69632,-9.5965 2.85328,-4.5813 -4.4708,-3.5238 -4.9024,-7.4402 -0.64832,-3.1447 -5.88288,-6.4443 -3.5172,-9.2964 -1.3164,-4.30794 -5.84312,0.735 -7.88408,1.3481 -2.05536,2.7192 -2.66672,7.7176 -6.6872,7.3728 -1.08992,2.8664 -7.80744,2.178 -9.51024,0.6272 -1.70592,-1.292 -9.23808,-0.9003 -5.91848,-5.3481 -1.17224,-5.7031 -6.33432,3.9186 -7.3828,-1.6262 -2.3236,-3.274 -0.056,-6.18482 -2.7676,-9.52586 3.98632,0.0758 4.72264,-4.66824 6.86776,-7.53264 1.01648,-4.4614 4.60408,-4.25596 6.69384,-7.29728 1.45168,-2.47668 5.63832,-1.70704 1.9048,-5.68483 -1.44104,-3.61505 -6.59552,-1.45345 -9.73192,-1.71771 -3.15584,0.66475 -3.62944,2.42505 -6.44024,-0.18908 -4.49536,1.44498 -4.98224,-3.80234 -7.32312,-6.41318 -0.54656,-4.95333 -5.18856,-3.37933 -8.8344,-3.70472 -2.024,2.95583 -6.74712,0.81137 -8.69224,4.22489 -5.18336,-0.0319 1.1692,6.57931 2.91024,1.78455 2.40112,-2.38639 6.08152,-1.93684 9.87992,-2.19917 2.49568,2.83539 5.27664,2.12014 4.03176,6.21433 1.66128,2.4692 6.33008,2.83247 1.74088,6.31484 -2.50488,-4.9154 -4.356,1.61488 -8.74544,-0.21268 -3.5912,-0.19056 -7.26528,0.24196 -10.92584,-0.20528 -3.25392,-0.29946 -8.3628,1.877 -9.84936,-1.8482 -3.88584,-2.18212 -7.32504,4.02056 -8.73856,0.36264 -2.27928,-5.20778 -4.31368,1.70424 -8.51208,-0.34421 -4.15408,1.19107 -5.3416,-2.68105 -0.6844,-2.5102 0.95216,-4.20941 7.84168,1.14233 8.71048,-3.58116 5.3576,0.74389 2.37104,-4.93747 3.88248,-7.45927 -1.86624,-3.00522 1.01024,-6.34848 -1.07568,-9.49366 -1.76024,-3.03502 0.67416,-6.41836 -0.8992,-9.26973 -0.8264,-4.52289 -4.3984,-5.06173 -6.50208,-7.6444 -1.51032,-3.41033 -6.4048,-2.45997 -7.47888,-5.70003 4.026,-0.0354 6.69976,-1.05498 8.07888,-5.36814 2.42352,-2.96206 2.07272,-6.42964 1.3024,-9.3628 2.25152,-3.85952 -1.39672,-6.8709 -5.3344,-5.61488 -3.67352,0.10489 -7.25896,-0.13006 -10.968,0.1035 -3.34384,-0.49852 -9.29928,-0.62459 -5.20128,3.8334 1.87392,3.1734 3.85392,6.20741 5.32112,9.55236 2.35384,5.79246 -3.90768,-0.6836 -4.188,-3.50164 -6.31,-1.3574 -0.95832,3.93613 -5.01136,6.43711 -1.24184,3.06007 -7.80216,2.43893 -8.32048,-1.39929 -0.92008,-3.12684 -1.70488,-6.48088 1.0804,-9.4181 1.88432,-2.6059 2.5548,-8.2043 6.5196,-7.62946 0.90352,-4.65416 5.71872,-3.02352 6.52384,-7.63536 2.01672,-3.2472 5.42672,-3.18892 7.91696,-5.35674 2.20736,-1.5513 5.72736,-0.81794 7.53624,-2.95331 3.03832,-1.28437 4.77672,-3.95657 8.60696,-4.24995 2.73056,-1.02105 5.85912,-2.58004 9.8556,-1.78748 1.38232,-3.73028 6.62912,-1.47429 9.82648,-1.78346 3.608,-0.48403 7.28072,-0.0282 10.90192,-0.21146 3.33624,0.45397 5.49608,3.44765 9.78504,1.80203 2.71712,2.0902 4.78032,4.52534 8.7144,4.20628 3.03536,1.18203 4.82968,3.89052 8.61272,4.24019 3.89368,-0.95384 6.50888,1.4617 8.72112,3.7698 1.68368,3.25049 5.83616,2.583 7.51728,5.50974 2.18768,3.11276 5.67552,2.91793 6.88144,7.44958 1.3904,2.17973 8.0912,2.09041 5.9008,5.36274 0.2548,4.53248 4.38064,5.07473 6.30048,7.67796 2.57896,3.20634 -0.024,6.08093 2.91792,9.58669 3.50992,2.78133 -0.25176,6.40623 3.2796,9.33192 3.69136,3.08681 -0.1484,6.38866 3.30624,9.34247 -1.65064,3.58284 -1.81096,6.43892 -1.50376,9.73892 3.8272,3.20095 -2.27368,6.24333 0.4728,9.51947 -2.7476,2.95385 -2.01824,6.32665 -1.07408,9.43985 1.94744,3.08076 3.3244,6.50036 5.6804,9.37028 -1.28608,3.45984 -0.0152,6.38356 -0.4816,9.67042 1.3892,3.2214 -2.78344,6.1752 -0.7184,9.5889 -0.55744,2.8734 -0.65224,6.2315 -3.2804,9.3704 2.62496,3.151 -3.71304,6.4139 0.90504,9.3017 -0.2632,3.5879 -1.40128,6.4441 0.89624,9.7389 0.13376,2.5901 0.79488,8.975 -2.99208,3.7682 -3.42192,0.1542 -4.90296,-4.0053 -8.64008,-3.7865 -0.84792,-4.7575 -7.91192,0.6889 -8.87544,-3.6665 -1.07288,-3.3134 -7.29888,-3.5935 -8.44008,-0.317 -3.52984,1.5592 -6.5208,-5.3285 -8.76704,-0.4182 -4.22696,-0.5396 -5.71072,2.8683 -9.69776,2.4101 -3.1076,1.0577 -4.80984,4.0567 -8.70008,4.2261 -2.50432,-2.5614 -3.85344,-6.3527 -5.88888,-9.2489 -2.92504,-3.4543 -6.01,1.6941 -6.90208,4.7044 -0.12736,2.5228 -1.20776,5.5763 -1.58176,8.2165 6.30184,-0.01 -0.544,4.5943 -1.82128,5.731 -4.55856,-0.8106 -5.89224,2.4318 -8.564,4.4054 -4.31528,0.528 4.4624,7.2704 -2.81672,6.453 -2.24472,3.3464 1.90992,6.3289 0.48584,9.4134 -0.89704,3.3128 0.65912,6.1426 4,6.9682 2.21224,2.791 2.84224,7.681 6.8772,7.4479 -0.11104,1.8608 5.21872,5.8112 0.67288,5.7377 z m 22.0304,-96.16548 c 2.75832,-0.86332 5.66544,-2.01344 8.41968,-2.84212 1.14744,-2.31892 0.92064,-5.43276 0.16096,-7.23784 -3.39552,0.82908 -8.24488,-1.58068 -9.16096,3.1126 -2.06424,2.0854 -3.46624,6.81892 0.58032,6.96736 z m 30.01784,-16.00952 c 2.77432,-0.7836 8.77832,1.95332 9.49944,-1.54739 -2.34392,-2.6763 -2.75728,-7.72574 -7.27464,-6.3389 -3.46736,-0.58563 -6.2636,4.95769 -3.92704,7.60729 0.374,0.50304 1.18192,0.75376 1.70224,0.279 z m -68.09552,-1.98735 c 3.6472,0.23892 7.25264,-0.27677 10.89632,0.25413 3.33944,0.64781 8.79224,-1.23121 5.60096,-5.2338 -0.39952,-3.78772 -6.96056,-4.24858 -8.12736,-1.30454 -3.53112,0.68478 -5.47728,3.08576 -8.48968,4.39103 -2.26224,-1.17392 -2.31152,3.31516 0.11976,1.89318 z m 14.84728,80.16235 c -1.1332,-3.8235 4.02488,-5.1309 6.294,-5.9564 1.5704,-4.105 7.05376,-0.5184 9.31576,-3.1446 2.13128,-1.8348 5.75976,-0.5081 7.46328,-3.0388 4.46656,1.2299 6.22096,-1.615 9.64944,-2.2827 1.44424,-3.5679 6.86568,-0.8377 10.0216,-1.7194 4.42616,-1.1971 6.09496,1.8801 9.77904,2.201 3.66888,-0.4065 7.3836,-0.1004 11.0852,-0.1113 1.1312,1.5107 8.49432,5.4707 2.95624,5.6813 -2.14128,-2.341 -4.92712,-4.2102 -8.83016,-3.643 -3.06832,-0.8502 -8.668,1.9421 -9.99056,-1.7336 -3.46944,-0.6339 -7.1756,-0.031 -10.73192,-0.2787 -3.78624,-0.2336 -5.23856,4.0534 -8.72048,3.7742 -4.50736,-0.9456 -5.67136,2.837 -9.8308,2.2412 -2.15832,2.6992 -6.1984,1.6271 -9.69464,2.409 -1.89304,3.0628 -5.91992,2.5324 -8.116,5.8516 l -0.65,-0.2499 0,10e-5 z m -26.6,-34.0368 c -3.19632,-3.323 -1.80792,-6.2214 -2.83032,-9.6781 5.07176,-4.6907 -0.9516,-3.7277 -3.51968,-5.3088 -1.71336,-2.7393 -4.04192,4.0727 -5.6804,-1.4317 2.27464,-3.4488 -1.6256,-6.2572 -2.9196,-9.52972 -2.6024,-3.29732 0.0776,-6.25768 -3.10056,-9.73696 -0.33384,-3.01632 -0.67776,-6.30732 -3.29944,-9.36306 2.80592,-3.56154 3.48528,6.2009 8.12696,2.7677 4.94832,-0.14656 2.92368,2.43076 0.0728,3.15952 -2.6528,1.0772 -5.0492,3.25328 -0.008,3.25004 6.63536,0.72308 -4.46224,1.7098 0.008,4.86344 3.9388,2.73632 -0.95024,7.59524 4.48368,7.33648 -2.48824,3.76416 1.33216,6.83086 5.28344,5.59616 2.08776,0.3922 6.62592,1.8453 5.83304,3.986 -2.26192,3.3594 -1.27544,6.179 -0.70768,9.7029 -3.65496,1.1494 3.49528,4.654 -1.74376,4.3861 z m 24.26936,-6.0658 c -0.42944,-2.2308 2.36416,-8.1673 5.15504,-7.8204 2.51208,-2.4771 3.52168,-6.6304 6.98584,-7.191 2.6724,-5.8482 4.434,-0.7772 1.1188,2.5828 -1.4292,4.4686 -5.3024,3.691 -6.8792,7.4936 -3.1228,0.4162 -3.72232,4.1757 -6.38048,4.935 z M 635.8782,989.558 c -0.99648,-4.01248 -7.9312,0.0702 -7.22408,-5.5804 2.43952,0.74188 5.71328,2.56512 9.60568,1.651 3.65176,-0.15404 7.30872,0.35252 10.9684,-0.22652 4.05496,2.23488 6.2316,-5.04168 7.99752,1.19996 -1.03128,4.77504 -5.72856,2.269 -9.304,3.15648 -3.49712,-0.5088 -7.15424,0.0192 -10.71312,-0.23672 l -0.65792,0.244 -0.67248,-0.20772 0,-8e-5 z"
       id="face3"
       style="fill:url(#linearGradient3040);fill-opacity:1" />
    <path
       d="m 476.85244,1095.5874 c -1.50904,-3.5244 -4.49296,-5.0939 -7.4172,-5.6715 -2.49288,-2.6768 -3.51416,-6.7715 -7.00688,-7.2661 -1.25048,-2.9704 -0.0504,-5.5284 -2.28032,-8.6773 0.55024,-2.9191 0.65456,-6.3424 3.48032,-9.4764 2.1828,-2.2916 -1.76968,-5.7697 3.2876,-5.2232 2.10264,-2.3723 4.8964,-4.2655 8.86704,-3.7146 4.84776,2.373 5.10736,-4.0646 8.64344,-3.7569 3.6516,-0.3982 5.43216,-3.4762 9.816,-2.2283 2.22856,-2.4728 6.15696,-1.926 9.85248,-2.2046 3.59064,0.4796 7.29072,0.045 10.90152,0.2113 3.50408,0.4416 7.95272,-1.5134 9.8388,2.221 4.50456,-3.4567 5.2936,5.7819 7.99312,2.8203 0.8668,-3.8501 6.3204,-7.4058 3.71984,-1.3891 1.13112,2.9664 0.95248,6.2042 -1.31968,9.3702 0.6988,3.0876 1.58888,6.517 -1.08312,9.3563 3.0476,3.4399 -3.2388,6.3509 -1.91808,9.603 0.0829,3.2392 0.57304,6.0937 -1.71832,9.5925 -2.4128,2.5613 -4.72456,4.6163 -8.5744,4.3914 -3.61568,0.1992 -7.31424,-0.2936 -10.90576,0.2376 -3.69384,-0.4924 -7.33472,-0.1053 -11.03104,-0.2023 -1.39176,3.7434 -6.59216,1.4794 -9.83408,1.7804 -3.60472,0.5216 -7.32568,0.03 -10.922,0.2131 -0.81056,-0.85 -1.59792,0.9759 -2.38928,0.014 z m -11.47408,-3.9002 c -1.51168,-3.4882 -6.248,-1.1421 -8.13672,-3.9919 -3.2756,-0.8962 -3.57648,-6.1425 -6.29608,-8.4671 -1.38896,-3.319 -3.49688,-6.3757 -5.31592,-9.5854 -2.9144,-5.3218 -3.54856,2.5822 -3.70184,4.3246 0,3.507 5.10584,6.3902 3.88608,9.683 -2.54568,-0.8597 -3.68032,-4.5877 -6.38552,-5.0578 2.25032,-3.192 -1.998,-6.4494 -3.47624,-9.3552 -1.84984,-3.418 -0.10168,-6.3754 -0.72248,-9.5947 -0.21768,-3.2458 -0.34976,-6.2161 1.6728,-9.6008 -2.40592,-2.9541 2.86104,-6.2798 3.5272,-9.422 2.0668,-3.0225 3.34984,-6.7525 5.81968,-9.304 5.39736,0.9571 2.33328,-7.1829 -1.02096,-2.6525 -1.72808,4.167 -7.34016,-7.0552 -2.52912,-4.7029 2.36544,4.9203 5.282,-1.9459 8.768,-0.4037 4.12304,3.0349 5.68008,-7.5396 7.44152,-2.325 -1.34944,4.3607 -5.15272,3.5543 -6.6804,7.2547 -2.0468,3.0541 -3.4404,6.7429 -5.90312,9.3768 -3.88248,-0.6718 -4.39304,5.4131 -3.99688,7.7388 -2.08056,3.2675 -1.20392,6.1754 -0.63264,9.5281 -0.90904,2.9683 -1.21768,6.232 1.17224,9.4438 2.15968,2.0778 7.89592,1.745 8.08096,-2.525 0.88784,-2.5532 0.17504,-5.1685 2.15984,-8.0766 -2.08264,-2.4234 1.8892,-7.9876 5.33368,-6.3993 2.7516,-1.5938 5.70792,-2.459 7.28352,-6.3338 -2.05496,-3.5415 1.68416,-6.4723 3.10368,-9.6779 1.26336,-3.3919 7.51144,-2.8613 8.67984,0.5304 0.75648,3.1415 3.91232,7.9384 6.87808,4.5024 2.5924,-2.0778 5.80088,-2.3372 8.10424,-5.2676 3.56872,0.5809 7.3536,0.081 10.97104,0.2475 3.6452,0.1465 7.29808,-0.331 10.96888,0.2268 3.53128,-0.3462 3.77864,6.1574 8.59096,3.7395 4.80064,-2.2052 5.44512,3.8883 8.49712,3.7098 2.81064,-3.3878 -1.46176,-6.4492 -2.69264,-9.689 -2.44784,-3.2148 -0.26768,-6.0654 -2.6964,-9.5965 2.85328,-4.5813 -4.4708,-3.5238 -4.90232,-7.4402 -0.64832,-3.1447 -5.88288,-6.4443 -3.51728,-9.2964 -1.31632,-4.30794 -5.84304,0.735 -7.884,1.3481 -2.05544,2.7192 -2.6668,7.7176 -6.68728,7.3728 -1.08984,2.8664 -7.80744,2.178 -9.51024,0.6272 -1.70584,-1.292 -9.23808,-0.9003 -5.91848,-5.3481 -1.17224,-5.7031 -6.33432,3.9186 -7.3828,-1.6262 -2.32352,-3.274 -0.056,-6.18482 -2.76752,-9.52586 3.98624,0.0758 4.72256,-4.66824 6.86776,-7.53264 1.01648,-4.4614 4.604,-4.25596 6.69384,-7.29728 1.45168,-2.47668 5.63824,-1.70704 1.9048,-5.68483 -1.44112,-3.61505 -6.59552,-1.45345 -9.732,-1.71771 -3.15584,0.66475 -3.62944,2.42505 -6.44024,-0.18908 -4.49528,1.44498 -4.98216,-3.80234 -7.32304,-6.41318 -0.54656,-4.95333 -5.18856,-3.37933 -8.8344,-3.70472 -2.024,2.95583 -6.74712,0.81137 -8.69224,4.22489 -5.18336,-0.0319 1.1692,6.57931 2.91024,1.78455 2.40112,-2.38639 6.08152,-1.93684 9.87992,-2.19917 2.49568,2.83539 5.27664,2.12014 4.03176,6.21433 1.66128,2.4692 6.33,2.83247 1.74088,6.31484 -2.50488,-4.9154 -4.356,1.61488 -8.74544,-0.21268 -3.5912,-0.19056 -7.26528,0.24196 -10.92584,-0.20528 -3.25392,-0.29946 -8.3628,1.877 -9.84936,-1.8482 -3.88584,-2.18212 -7.32504,4.02056 -8.73856,0.36264 -2.27928,-5.20778 -4.31368,1.70424 -8.51208,-0.34421 -4.15408,1.19107 -5.3416,-2.68105 -0.6844,-2.5102 0.95216,-4.20941 7.84168,1.14233 8.7104,-3.58116 5.35768,0.74389 2.37112,-4.93747 3.88256,-7.45927 -1.86624,-3.00522 1.01024,-6.34848 -1.07568,-9.49365 -1.76024,-3.03503 0.67416,-6.41837 -0.8992,-9.26974 -0.8264,-4.52289 -4.3984,-5.06173 -6.50208,-7.6444 -1.51032,-3.41033 -6.4048,-2.45997 -7.47888,-5.70003 4.026,-0.0354 6.69976,-1.05498 8.07888,-5.36814 2.42352,-2.96206 2.07272,-6.42964 1.3024,-9.3628 2.25152,-3.85952 -1.39672,-6.8709 -5.33432,-5.61488 -3.6736,0.10489 -7.25904,-0.13006 -10.96808,0.1035 -3.34384,-0.49852 -9.29928,-0.62459 -5.20128,3.8334 1.87392,3.1734 3.85392,6.20741 5.32112,9.55236 2.35392,5.79246 -3.9076,-0.6836 -4.188,-3.50164 -6.31,-1.3574 -0.95832,3.93613 -5.01136,6.43711 -1.24184,3.06007 -7.80216,2.43893 -8.32048,-1.39929 -0.92008,-3.12684 -1.70488,-6.48088 1.0804,-9.4181 1.88432,-2.6059 2.5548,-8.2043 6.5196,-7.62946 0.90352,-4.65416 5.7188,-3.02352 6.52384,-7.63536 2.01672,-3.2472 5.42672,-3.18892 7.91696,-5.35674 2.20736,-1.5513 5.72736,-0.81794 7.53624,-2.95331 3.03832,-1.28437 4.77672,-3.95657 8.60696,-4.24995 2.73056,-1.02105 5.85912,-2.58004 9.8556,-1.78748 1.38232,-3.73028 6.62912,-1.47429 9.82648,-1.78346 3.608,-0.48403 7.28072,-0.0282 10.90192,-0.21146 3.33624,0.45397 5.49608,3.44765 9.78504,1.80203 2.71712,2.0902 4.78024,4.52534 8.71432,4.20628 3.03544,1.18203 4.82968,3.89052 8.6128,4.24019 3.8936,-0.95384 6.50888,1.4617 8.72112,3.7698 1.6836,3.25049 5.83616,2.583 7.51728,5.50974 2.18768,3.11276 5.67552,2.91793 6.88144,7.44958 1.39032,2.17973 8.0912,2.09041 5.9008,5.36274 0.2548,4.53248 4.38056,5.07473 6.30048,7.67796 2.57888,3.20634 -0.0248,6.08093 2.91792,9.58669 3.50984,2.78133 -0.25184,6.40623 3.27952,9.33192 3.69144,3.08681 -0.1484,6.38866 3.30624,9.34248 -1.65056,3.58283 -1.81088,6.43891 -1.50368,9.73891 3.8272,3.20095 -2.27376,6.24333 0.4728,9.51947 -2.7476,2.95385 -2.01832,6.32665 -1.07408,9.43985 1.94736,3.08076 3.3244,6.50036 5.6804,9.37028 -1.28616,3.45984 -0.0152,6.38356 -0.48168,9.67042 1.38928,3.2214 -2.78336,6.1752 -0.71832,9.5889 -0.55752,2.8734 -0.65232,6.2315 -3.2804,9.3704 2.62496,3.151 -3.71312,6.4139 0.90496,9.3017 -0.26312,3.5879 -1.4012,6.4441 0.89632,9.7389 0.13376,2.5901 0.7948,8.975 -2.99216,3.7682 -3.42192,0.1542 -4.90288,-4.0053 -8.64,-3.7865 -0.84792,-4.7575 -7.912,0.6889 -8.87544,-3.6665 -1.07288,-3.3134 -7.29896,-3.5935 -8.44016,-0.317 -3.52984,1.5592 -6.52072,-5.3285 -8.76704,-0.4182 -4.22696,-0.5396 -5.71064,2.8683 -9.69768,2.4101 -3.10768,1.0577 -4.80984,4.0567 -8.70016,4.2261 -2.50432,-2.5614 -3.85344,-6.3527 -5.8888,-9.2489 -2.92504,-3.4543 -6.01,1.6941 -6.90208,4.7044 -0.12736,2.5228 -1.20776,5.5763 -1.58176,8.2165 6.30184,-0.01 -0.544,4.5943 -1.82128,5.731 -4.55856,-0.8106 -5.89224,2.4318 -8.564,4.4054 -4.31528,0.528 4.4624,7.2704 -2.81672,6.453 -2.24472,3.3464 1.90992,6.3289 0.48584,9.4134 -0.89704,3.3128 0.65912,6.1426 4,6.9682 2.21224,2.791 2.84224,7.681 6.8772,7.4479 -0.11104,1.8608 5.21872,5.8112 0.67288,5.7377 z m 22.0304,-96.16548 c 2.75824,-0.86332 5.66544,-2.01344 8.4196,-2.84212 1.14752,-2.31892 0.92064,-5.43276 0.16104,-7.23784 -3.3956,0.82908 -8.24488,-1.58068 -9.16104,3.1126 -2.06416,2.0854 -3.46624,6.81892 0.5804,6.96736 z M 517.4266,979.5122 c 2.77424,-0.7836 8.77832,1.95332 9.49936,-1.54739 -2.34392,-2.6763 -2.7572,-7.72574 -7.27464,-6.3389 -3.46728,-0.58563 -6.2636,4.95769 -3.92704,7.60729 0.374,0.50304 1.182,0.75376 1.70232,0.279 z m -68.09552,-1.98735 c 3.6472,0.23892 7.25264,-0.27677 10.89632,0.25413 3.33944,0.64781 8.79224,-1.23121 5.60096,-5.2338 -0.39952,-3.78772 -6.96056,-4.24858 -8.12736,-1.30454 -3.53112,0.68478 -5.47728,3.08576 -8.48968,4.39103 -2.26224,-1.17392 -2.31152,3.31516 0.11976,1.89318 z m 14.84728,80.16235 c -1.1332,-3.8235 4.02488,-5.1309 6.294,-5.9564 1.5704,-4.105 7.05368,-0.5184 9.31568,-3.1446 2.13136,-1.8348 5.75976,-0.5081 7.46328,-3.0388 4.46656,1.2299 6.22104,-1.615 9.64944,-2.2827 1.44424,-3.5679 6.86576,-0.8377 10.0216,-1.7194 4.42624,-1.1971 6.09496,1.8801 9.77912,2.201 3.6688,-0.4065 7.38352,-0.1004 11.0852,-0.1113 1.13112,1.5107 8.49432,5.4707 2.95624,5.6813 -2.14136,-2.341 -4.9272,-4.2102 -8.83024,-3.643 -3.06832,-0.8502 -8.66792,1.9421 -9.99048,-1.7336 -3.46952,-0.6339 -7.17568,-0.031 -10.732,-0.2787 -3.78624,-0.2336 -5.23848,4.0534 -8.7204,3.7742 -4.50736,-0.9456 -5.67136,2.837 -9.8308,2.2412 -2.1584,2.6992 -6.19848,1.6271 -9.69464,2.409 -1.89304,3.0628 -5.91992,2.5324 -8.116,5.8516 l -0.65,-0.2499 0,10e-5 z m -26.6,-34.0368 c -3.19632,-3.323 -1.80792,-6.2214 -2.83032,-9.6781 5.07176,-4.6907 -0.9516,-3.7277 -3.51968,-5.3088 -1.71336,-2.7393 -4.04192,4.0727 -5.68032,-1.4317 2.27456,-3.4488 -1.62568,-6.2572 -2.91968,-9.52972 -2.6024,-3.29732 0.0776,-6.25768 -3.10048,-9.73696 -0.33384,-3.01632 -0.67784,-6.30732 -3.29952,-9.36306 2.80592,-3.56154 3.48528,6.2009 8.12696,2.7677 4.94832,-0.14656 2.92368,2.43076 0.0728,3.15952 -2.6528,1.0772 -5.04912,3.25328 -0.008,3.25004 6.63536,0.72308 -4.46224,1.7098 0.008,4.86344 3.9388,2.73632 -0.95024,7.59524 4.48368,7.33648 -2.48824,3.76416 1.33216,6.83086 5.28344,5.59616 2.08776,0.3922 6.62592,1.8453 5.83304,3.986 -2.26192,3.3594 -1.27544,6.179 -0.70768,9.7029 -3.65504,1.1494 3.49528,4.654 -1.74376,4.3861 z m 24.26936,-6.0658 c -0.42944,-2.2308 2.36416,-8.1673 5.15504,-7.8204 2.51208,-2.4771 3.52168,-6.6304 6.98584,-7.191 2.6724,-5.8482 4.43392,-0.7772 1.11872,2.5828 -1.42912,4.4686 -5.30232,3.691 -6.87912,7.4936 -3.1228,0.4162 -3.72232,4.1757 -6.38048,4.935 z M 450.27836,989.558 c -0.99648,-4.01248 -7.93128,0.0702 -7.22408,-5.5804 2.43952,0.74188 5.71328,2.56512 9.60568,1.651 3.65176,-0.15404 7.30872,0.35252 10.9684,-0.22652 4.05496,2.23488 6.2316,-5.04168 7.99752,1.19996 -1.03128,4.77504 -5.72856,2.269 -9.304,3.15648 -3.49712,-0.5088 -7.15424,0.0192 -10.71312,-0.23672 l -0.65792,0.244 -0.67248,-0.20772 0,-8e-5 z"
       id="face2"
       style="fill:url(#linearGradient3032);fill-opacity:1" />
    <path
       d="m 291.2526,1095.5874 c -1.50904,-3.5244 -4.49296,-5.0939 -7.4172,-5.6715 -2.49288,-2.6768 -3.51416,-6.7715 -7.00688,-7.2661 -1.25048,-2.9704 -0.0504,-5.5284 -2.28032,-8.6773 0.55024,-2.9191 0.65456,-6.3424 3.48032,-9.4764 2.1828,-2.2916 -1.76968,-5.7697 3.2876,-5.2232 2.10264,-2.3723 4.8964,-4.2655 8.86704,-3.7146 4.84776,2.373 5.10736,-4.0646 8.64344,-3.7569 3.6516,-0.3982 5.43216,-3.4762 9.816,-2.2283 2.22856,-2.4728 6.15696,-1.926 9.85248,-2.2046 3.59064,0.4796 7.29072,0.045 10.90152,0.2113 3.50408,0.4416 7.95272,-1.5134 9.8388,2.221 4.50456,-3.4567 5.2936,5.7819 7.99312,2.8203 0.8668,-3.8501 6.3204,-7.4058 3.71984,-1.3891 1.1312,2.9664 0.95248,6.2042 -1.3196,9.3702 0.69872,3.0876 1.58888,6.517 -1.0832,9.3563 3.04768,3.4399 -3.2388,6.3509 -1.91808,9.603 0.0829,3.2392 0.57304,6.0937 -1.71832,9.5925 -2.4128,2.5613 -4.72456,4.6163 -8.5744,4.3914 -3.61568,0.1992 -7.31424,-0.2936 -10.90576,0.2376 -3.69384,-0.4924 -7.33472,-0.1053 -11.03104,-0.2023 -1.39176,3.7434 -6.59216,1.4794 -9.83408,1.7804 -3.60472,0.5216 -7.32568,0.03 -10.922,0.2131 -0.81056,-0.85 -1.59792,0.9759 -2.38928,0.014 z m -11.47408,-3.9002 c -1.51168,-3.4882 -6.248,-1.1421 -8.13672,-3.9919 -3.2756,-0.8962 -3.57648,-6.1425 -6.29608,-8.4671 -1.38896,-3.319 -3.4968,-6.3757 -5.31592,-9.5854 -2.9144,-5.3218 -3.54856,2.5822 -3.70184,4.3246 4e-4,3.507 5.10584,6.3902 3.88608,9.683 -2.5456,-0.8597 -3.68032,-4.5877 -6.38552,-5.0578 2.25032,-3.192 -1.99792,-6.4494 -3.47624,-9.3552 -1.84976,-3.418 -0.10168,-6.3754 -0.72248,-9.5947 -0.21768,-3.2458 -0.34968,-6.2161 1.6728,-9.6008 -2.40584,-2.9541 2.86104,-6.2798 3.5272,-9.422 2.0668,-3.0225 3.34992,-6.7525 5.81968,-9.304 5.39736,0.9571 2.33328,-7.1829 -1.02096,-2.6525 -1.72808,4.167 -7.34016,-7.0552 -2.52912,-4.7029 2.36544,4.9203 5.282,-1.9459 8.768,-0.4037 4.12304,3.0349 5.68008,-7.5396 7.44152,-2.325 -1.34944,4.3607 -5.15272,3.5543 -6.6804,7.2547 -2.0468,3.0541 -3.4404,6.7429 -5.90312,9.3768 -3.88248,-0.6718 -4.39304,5.4131 -3.99688,7.7388 -2.08048,3.2675 -1.20392,6.1754 -0.63264,9.5281 -0.90904,2.9683 -1.2176,6.232 1.17224,9.4438 2.15968,2.0778 7.89592,1.745 8.08096,-2.525 0.88784,-2.5532 0.17504,-5.1685 2.15984,-8.0766 -2.08264,-2.4234 1.8892,-7.9876 5.33368,-6.3993 2.7516,-1.5938 5.70792,-2.459 7.28352,-6.3338 -2.05496,-3.5415 1.68416,-6.4723 3.10368,-9.6779 1.26336,-3.3919 7.51144,-2.8613 8.67984,0.5304 0.75648,3.1415 3.91232,7.9384 6.87808,4.5024 2.5924,-2.0778 5.80088,-2.3372 8.10424,-5.2676 3.56872,0.5809 7.3536,0.081 10.97104,0.2475 3.6452,0.1465 7.29808,-0.331 10.96888,0.2268 3.53128,-0.3462 3.77864,6.1574 8.59096,3.7395 4.80064,-2.2052 5.44512,3.8883 8.49712,3.7098 2.81064,-3.3878 -1.46176,-6.4492 -2.69264,-9.689 -2.44784,-3.2148 -0.26768,-6.0654 -2.6964,-9.5965 2.85328,-4.5813 -4.4708,-3.5238 -4.90232,-7.4402 -0.64832,-3.1447 -5.88288,-6.4443 -3.51728,-9.2964 -1.31632,-4.30794 -5.84304,0.735 -7.884,1.3481 -2.05544,2.7192 -2.6668,7.7176 -6.68728,7.3728 -1.08984,2.8664 -7.80744,2.178 -9.51024,0.6272 -1.70584,-1.292 -9.23808,-0.9003 -5.91848,-5.3481 -1.17224,-5.7031 -6.33432,3.9186 -7.3828,-1.6262 -2.32352,-3.274 -0.056,-6.18482 -2.76752,-9.52586 3.98624,0.0758 4.72256,-4.66824 6.86776,-7.53264 1.01648,-4.4614 4.604,-4.25596 6.69384,-7.29728 1.45168,-2.47668 5.63824,-1.70704 1.9048,-5.68483 -1.44112,-3.61505 -6.59552,-1.45345 -9.732,-1.71771 -3.15584,0.66475 -3.62944,2.42505 -6.44024,-0.18908 -4.49528,1.44498 -4.98216,-3.80234 -7.32304,-6.41318 -0.54656,-4.95332 -5.18856,-3.37933 -8.8344,-3.70472 -2.024,2.95583 -6.74712,0.81137 -8.69224,4.22489 -5.18336,-0.0319 1.1692,6.57931 2.91024,1.78455 2.40112,-2.38639 6.08152,-1.93684 9.87992,-2.19917 2.49568,2.83539 5.27664,2.12014 4.03176,6.21433 1.66128,2.4692 6.33,2.83247 1.74088,6.31484 -2.50488,-4.9154 -4.356,1.61488 -8.74544,-0.21268 -3.5912,-0.19056 -7.26528,0.24196 -10.92584,-0.20528 -3.25392,-0.29946 -8.3628,1.877 -9.84936,-1.8482 -3.88584,-2.18212 -7.32504,4.02056 -8.73856,0.36264 -2.27928,-5.20778 -4.31368,1.70424 -8.51208,-0.34421 -4.15408,1.19107 -5.34152,-2.68105 -0.6844,-2.5102 0.95216,-4.20941 7.84168,1.14233 8.71048,-3.58116 5.3576,0.74389 2.37104,-4.93747 3.88248,-7.45927 -1.86624,-3.00522 1.01024,-6.34848 -1.07568,-9.49366 -1.76024,-3.03502 0.67416,-6.41836 -0.8992,-9.26973 -0.8264,-4.52289 -4.3984,-5.06173 -6.50208,-7.6444 -1.51024,-3.41033 -6.4048,-2.45997 -7.47888,-5.70003 4.02608,-0.0354 6.69976,-1.05498 8.07888,-5.36814 2.42352,-2.96206 2.07272,-6.42964 1.3024,-9.3628 2.25152,-3.85952 -1.39664,-6.8709 -5.33432,-5.61488 -3.6736,0.10489 -7.25904,-0.13006 -10.96808,0.1035 -3.34384,-0.49852 -9.29929,-0.62459 -5.20129,3.8334 1.87393,3.1734 3.85393,6.20741 5.32113,9.55236 2.35392,5.79246 -3.9076,-0.6836 -4.188,-3.50164 -6.31001,-1.3574 -0.95825,3.93613 -5.01129,6.43711 -1.24192,3.06007 -7.80224,2.43893 -8.32056,-1.39929 -0.92008,-3.12684 -1.70488,-6.48088 1.08048,-9.4181 1.88424,-2.6059 2.55472,-8.2043 6.51952,-7.62946 0.90352,-4.65416 5.71881,-3.02352 6.52385,-7.63536 2.01672,-3.2472 5.4268,-3.18892 7.91696,-5.35674 2.20736,-1.5513 5.72744,-0.81794 7.53624,-2.95331 3.0384,-1.28437 4.77672,-3.95657 8.60704,-4.24995 2.73048,-1.02105 5.85904,-2.58004 9.85552,-1.78748 1.38232,-3.73028 6.62912,-1.47429 9.82648,-1.78346 3.608,-0.48403 7.28072,-0.0282 10.90192,-0.21146 3.33624,0.45397 5.49608,3.44765 9.78504,1.80203 2.71712,2.0902 4.78024,4.52534 8.71432,4.20628 3.03544,1.18203 4.82968,3.89052 8.6128,4.24019 3.8936,-0.95384 6.50888,1.4617 8.72112,3.7698 1.6836,3.25049 5.83616,2.583 7.51728,5.50974 2.18768,3.11276 5.67552,2.91793 6.88144,7.44958 1.39032,2.17973 8.0912,2.09041 5.9008,5.36274 0.2548,4.53248 4.38056,5.07473 6.30048,7.67796 2.57888,3.20634 -0.0248,6.08093 2.91792,9.58669 3.50984,2.78133 -0.25184,6.40623 3.27952,9.33192 3.69144,3.08681 -0.1484,6.38866 3.30624,9.34247 -1.65056,3.58284 -1.81088,6.43892 -1.50368,9.73893 3.8272,3.20094 -2.27376,6.24332 0.4728,9.51946 -2.7476,2.95385 -2.01832,6.32665 -1.07408,9.43985 1.94736,3.08076 3.3244,6.50036 5.6804,9.37028 -1.28616,3.45984 -0.0144,6.38356 -0.48168,9.67042 1.38928,3.2214 -2.78336,6.1752 -0.71832,9.5889 -0.55752,2.8734 -0.65232,6.2315 -3.2804,9.3704 2.62496,3.151 -3.71312,6.4139 0.90496,9.3017 -0.26312,3.5879 -1.4012,6.4441 0.89632,9.7389 0.13376,2.5901 0.7948,8.975 -2.99216,3.7682 -3.42192,0.1542 -4.90288,-4.0053 -8.64,-3.7865 -0.84792,-4.7575 -7.912,0.6889 -8.87544,-3.6665 -1.07288,-3.3134 -7.29896,-3.5935 -8.44016,-0.317 -3.52984,1.5592 -6.52072,-5.3285 -8.76704,-0.4182 -4.22696,-0.5396 -5.71064,2.8683 -9.69768,2.4101 -3.10768,1.0577 -4.80984,4.0567 -8.70016,4.2261 -2.50432,-2.5614 -3.85344,-6.3527 -5.8888,-9.2489 -2.92504,-3.4543 -6.01,1.6941 -6.90208,4.7044 -0.12736,2.5228 -1.20776,5.5763 -1.58176,8.2165 6.30184,-0.01 -0.544,4.5943 -1.82128,5.731 -4.55856,-0.8106 -5.89224,2.4318 -8.564,4.4054 -4.31528,0.528 4.4624,7.2704 -2.81672,6.453 -2.24472,3.3464 1.90992,6.3289 0.48584,9.4134 -0.89704,3.3128 0.65912,6.1426 4,6.9682 2.21224,2.791 2.84224,7.681 6.8772,7.4479 -0.11104,1.8608 5.21872,5.8112 0.67288,5.7377 z m 22.0304,-96.16548 c 2.75824,-0.86332 5.66544,-2.01344 8.4196,-2.84212 1.14752,-2.31892 0.92064,-5.43276 0.16104,-7.23784 -3.3956,0.82908 -8.24488,-1.58068 -9.16104,3.1126 -2.06416,2.0854 -3.46624,6.81892 0.5804,6.96736 z m 30.01784,-16.00952 c 2.77424,-0.7836 8.77832,1.95332 9.49936,-1.54739 -2.34392,-2.6763 -2.7572,-7.72574 -7.27464,-6.3389 -3.46728,-0.58563 -6.2636,4.95769 -3.92704,7.60729 0.374,0.50304 1.182,0.75376 1.70232,0.279 z m -68.09552,-1.98735 c 3.6472,0.23892 7.25264,-0.27677 10.89632,0.25413 3.33944,0.64781 8.79224,-1.23121 5.60096,-5.2338 -0.39952,-3.78772 -6.96056,-4.24858 -8.12736,-1.30454 -3.53112,0.68478 -5.47728,3.08576 -8.48968,4.39103 -2.26224,-1.17392 -2.31152,3.31516 0.11976,1.89318 z m 14.84728,80.16235 c -1.1332,-3.8235 4.02488,-5.1309 6.294,-5.9564 1.5704,-4.105 7.05368,-0.5184 9.31568,-3.1446 2.13136,-1.8348 5.75976,-0.5081 7.46328,-3.0388 4.46656,1.2299 6.22104,-1.615 9.64944,-2.2827 1.44424,-3.5679 6.86576,-0.8377 10.0216,-1.7194 4.42624,-1.1971 6.09496,1.8801 9.77912,2.201 3.6688,-0.4065 7.38352,-0.1004 11.0852,-0.1113 1.13112,1.5107 8.49432,5.4707 2.95624,5.6813 -2.14136,-2.341 -4.9272,-4.2102 -8.83024,-3.643 -3.06832,-0.8502 -8.66792,1.9421 -9.99048,-1.7336 -3.46952,-0.6339 -7.17568,-0.031 -10.732,-0.2787 -3.78624,-0.2336 -5.23848,4.0534 -8.7204,3.7742 -4.50736,-0.9456 -5.67136,2.837 -9.8308,2.2412 -2.1584,2.6992 -6.19848,1.6271 -9.69464,2.409 -1.89304,3.0628 -5.91992,2.5324 -8.116,5.8516 l -0.65,-0.2499 0,10e-5 z m -26.6,-34.0368 c -3.19632,-3.323 -1.80792,-6.2214 -2.83032,-9.6781 5.07176,-4.6907 -0.9516,-3.7277 -3.51968,-5.3088 -1.71336,-2.7393 -4.04192,4.0727 -5.68032,-1.4317 2.27464,-3.4488 -1.62568,-6.2572 -2.91968,-9.52972 -2.6024,-3.29732 0.0776,-6.25768 -3.10048,-9.73696 -0.33384,-3.01632 -0.67784,-6.30732 -3.29952,-9.36306 2.80592,-3.56154 3.48528,6.2009 8.12696,2.7677 4.94832,-0.14656 2.92368,2.43076 0.0728,3.15952 -2.6528,1.0772 -5.04912,3.25328 0,3.25004 6.63536,0.72308 -4.46224,1.7098 0,4.86344 3.9388,2.73632 -0.95024,7.59524 4.48376,7.33648 -2.48832,3.76416 1.33216,6.83086 5.28344,5.59616 2.08768,0.3922 6.62584,1.8453 5.83296,3.986 -2.26192,3.3594 -1.27544,6.179 -0.70768,9.7029 -3.65496,1.1494 3.49528,4.654 -1.74376,4.3861 z m 24.26936,-6.0658 c -0.42944,-2.2308 2.36416,-8.1673 5.15504,-7.8204 2.51208,-2.4771 3.52168,-6.6304 6.98584,-7.191 2.6724,-5.8482 4.43392,-0.7772 1.11872,2.5828 -1.42912,4.4686 -5.30232,3.691 -6.87912,7.4936 -3.1228,0.4162 -3.72232,4.1757 -6.38048,4.935 z M 264.67852,989.558 c -0.99648,-4.01248 -7.9312,0.0702 -7.22408,-5.5804 2.43952,0.74188 5.71328,2.56512 9.60568,1.651 3.65176,-0.15404 7.30872,0.35252 10.9684,-0.22652 4.05496,2.23488 6.2316,-5.04168 7.99752,1.19996 -1.03128,4.77504 -5.72856,2.269 -9.304,3.15648 -3.49712,-0.5088 -7.15424,0.0192 -10.71312,-0.23672 l -0.65792,0.244 -0.67248,-0.20772 0,-8e-5 z"
       id="face1"
       style="fill:url(#linearGradient3018);fill-opacity:1" />
  </g>
  <g
     transform="translate(0,-750)"
     id="circles">
    <path
       d="m 814.28572,1138.5714 a 144.28572,21.428572 0 1 1 -288.57144,0 144.28572,21.428572 0 1 1 288.57144,0 z"
       transform="matrix(0.4,0,0,0.4,12.571487,666.65738)"
       id="path3046"
       style="fill:#a02c2c;fill-opacity:1;stroke-linecap:round;stroke-linejoin:round" />
    <path
       d="m 814.28572,1138.5714 a 144.28572,21.428572 0 1 1 -288.57144,0 144.28572,21.428572 0 1 1 288.57144,0 z"
       transform="matrix(0.4,0,0,0.4,200.28574,667.80022)"
       id="path3046-1"
       style="fill:#a02c2c;fill-opacity:1;stroke-linecap:round;stroke-linejoin:round" />
    <path
       d="m 814.28572,1138.5714 a 144.28572,21.428572 0 1 1 -288.57144,0 144.28572,21.428572 0 1 1 288.57144,0 z"
       transform="matrix(0.4,0,0,0.4,387.99996,668.9431)"
       id="path3046-1-7"
       style="fill:#a02c2c;fill-opacity:1;stroke-linecap:round;stroke-linejoin:round" />
  </g>
</svg>
